<svg width="32" height="32" viewBox="0 0 32 32" fill="none" xmlns="http://www.w3.org/2000/svg">
<path fill-rule="evenodd" clip-rule="evenodd" d="M16.3097 18.9348C16.2691 18.9755 16.2208 19.0078 16.1677 19.0299C16.1145 19.0519 16.0575 19.0633 16 19.0633C15.9425 19.0633 15.8855 19.0519 15.8323 19.0299C15.7792 19.0078 15.7309 18.9755 15.6902 18.9348L10.4402 13.6848C10.3581 13.6026 10.3119 13.4912 10.3119 13.375C10.3119 13.2588 10.3581 13.1474 10.4402 13.0653C10.5224 12.9831 10.6338 12.937 10.75 12.937C10.8662 12.937 10.9776 12.9831 11.0597 13.0653L16 18.0064L20.9402 13.0653C21.0224 12.9831 21.1338 12.937 21.25 12.937C21.3662 12.937 21.4776 12.9831 21.5597 13.0653C21.6419 13.1474 21.688 13.2588 21.688 13.375C21.688 13.4912 21.6419 13.6026 21.5597 13.6848L16.3097 18.9348Z" fill="black" stroke="#0F172A"/>
</svg>
