<svg width="24" height="24" viewBox="0 0 24 24" fill="none" xmlns="http://www.w3.org/2000/svg">
<g clip-path="url(#clip0_111_3539)">
<path fill-rule="evenodd" clip-rule="evenodd" d="M14.5716 0.857084C14.5716 0.481632 14.3272 0.149879 13.9687 0.038515C13.6101 -0.0728489 13.2208 0.0620998 13.0081 0.371489L3.57953 14.0858C3.3992 14.3481 3.37908 14.6887 3.52726 14.9704C3.67544 15.2521 3.96754 15.4285 4.28585 15.4285H9.42871V23.1428C9.42871 23.5183 9.67306 23.85 10.0316 23.9614C10.3902 24.0727 10.7795 23.9378 10.9922 23.6283L20.4207 9.91411C20.601 9.6518 20.6213 9.31118 20.473 9.02947C20.3249 8.74776 20.0328 8.57138 19.7144 8.57138H14.5716V0.857084Z" fill="#155DFC"/>
</g>
<defs>
<clipPath id="clip0_111_3539">
<rect width="24" height="24" fill="white"/>
</clipPath>
</defs>
</svg>
