<svg width="24" height="24" viewBox="0 0 24 24" fill="none" xmlns="http://www.w3.org/2000/svg">
<g clip-path="url(#clip0_111_2142)">
<path fill-rule="evenodd" clip-rule="evenodd" d="M14.5716 0.857115C14.5716 0.481662 14.3272 0.149909 13.9687 0.0385455C13.6101 -0.0728184 13.2208 0.0621303 13.0081 0.371519L3.57953 14.0858C3.3992 14.3481 3.37908 14.6887 3.52726 14.9704C3.67544 15.2522 3.96754 15.4286 4.28585 15.4286H9.42871V23.1429C9.42871 23.5183 9.67306 23.85 10.0316 23.9614C10.3902 24.0727 10.7795 23.9378 10.9922 23.6284L20.4207 9.91414C20.601 9.65184 20.6213 9.31121 20.473 9.0295C20.3249 8.74779 20.0328 8.57141 19.7144 8.57141H14.5716V0.857115Z" fill="#F8FAFC"/>
</g>
<defs>
<clipPath id="clip0_111_2142">
<rect width="24" height="24" fill="white"/>
</clipPath>
</defs>
</svg>
