<svg width="127" height="54" viewBox="0 0 127 54" fill="none" xmlns="http://www.w3.org/2000/svg">
<g opacity="0.5">
<rect x="43" y="14" width="40" height="40" rx="20" fill="#F97316"/>
</g>
<rect x="0.5" y="0.5" width="126" height="23" rx="3.5" fill="#F97316"/>
<rect x="0.5" y="0.5" width="126" height="23" rx="3.5" stroke="white"/>
<path d="M6.868 6.952H7.648V8.32C7.648 8.848 7.552 9.38 7.36 9.916C7.176 10.444 6.904 10.928 6.544 11.368C6.192 11.8 5.752 12.14 5.224 12.388L4.696 11.632C5.152 11.416 5.54 11.128 5.86 10.768C6.188 10.4 6.436 10 6.604 9.568C6.78 9.136 6.868 8.72 6.868 8.32V6.952ZM7.084 6.952H7.864V8.32C7.864 8.608 7.904 8.912 7.984 9.232C8.072 9.552 8.2 9.872 8.368 10.192C8.544 10.504 8.76 10.792 9.016 11.056C9.28 11.32 9.588 11.536 9.94 11.704L9.496 12.508C9.08 12.316 8.72 12.064 8.416 11.752C8.112 11.432 7.86 11.08 7.66 10.696C7.46 10.312 7.312 9.916 7.216 9.508C7.128 9.092 7.084 8.696 7.084 8.32V6.952ZM11.14 6.952H11.908V8.32C11.908 8.848 11.82 9.388 11.644 9.94C11.476 10.492 11.212 10.996 10.852 11.452C10.5 11.908 10.048 12.26 9.496 12.508L9.052 11.704C9.524 11.48 9.912 11.18 10.216 10.804C10.52 10.428 10.748 10.024 10.9 9.592C11.06 9.152 11.14 8.728 11.14 8.32V6.952ZM11.356 6.952H12.136V8.32C12.136 8.76 12.216 9.196 12.376 9.628C12.544 10.06 12.788 10.452 13.108 10.804C13.436 11.156 13.836 11.432 14.308 11.632L13.768 12.388C13.248 12.148 12.808 11.82 12.448 11.404C12.088 10.98 11.816 10.504 11.632 9.976C11.448 9.44 11.356 8.888 11.356 8.32V6.952ZM4.6 14.656H14.428V15.484H4.6V14.656ZM16.1791 13.432H16.8991C17.5551 13.432 18.2031 13.416 18.8431 13.384C19.4911 13.344 20.1871 13.26 20.9311 13.132L21.0151 13.948C20.2551 14.084 19.5471 14.172 18.8911 14.212C18.2431 14.244 17.5791 14.26 16.8991 14.26H16.1791V13.432ZM16.1551 7.276H20.0191V11.044H17.1391V13.78H16.1791V10.24H19.0591V8.092H16.1551V7.276ZM24.0751 6.076H25.0231V16.936H24.0751V6.076ZM20.5351 9.976H22.2991V10.804H20.5351V9.976ZM21.8791 6.34H22.8151V16.36H21.8791V6.34ZM34.9461 6.076H35.9421V16.936H34.9461V6.076ZM31.7661 7.252H32.7501C32.7501 8.036 32.6541 8.792 32.4621 9.52C32.2781 10.248 31.9861 10.94 31.5861 11.596C31.1861 12.244 30.6661 12.848 30.0261 13.408C29.3861 13.968 28.6101 14.468 27.6981 14.908L27.1701 14.104C28.2181 13.6 29.0821 13.012 29.7621 12.34C30.4421 11.668 30.9461 10.92 31.2741 10.096C31.6021 9.264 31.7661 8.368 31.7661 7.408V7.252ZM27.6741 7.252H32.1861V8.056H27.6741V7.252ZM42.3762 6.676H47.4402V11.116H42.3762V6.676ZM46.4682 7.48H43.3482V10.324H46.4682V7.48ZM49.7082 6.076H50.7042V11.656H49.7082V6.076ZM43.6842 12.208H50.7042V14.824H44.6802V16.348H43.7082V14.092H49.7202V13H43.6842V12.208ZM43.7082 16.012H51.0642V16.816H43.7082V16.012ZM55.9233 7.012H56.7393V7.852C56.7393 8.484 56.6113 9.076 56.3553 9.628C56.0993 10.18 55.7393 10.66 55.2753 11.068C54.8113 11.468 54.2753 11.772 53.6673 11.98L53.1633 11.188C53.5713 11.06 53.9433 10.884 54.2793 10.66C54.6153 10.436 54.9033 10.176 55.1433 9.88C55.3913 9.584 55.5833 9.264 55.7193 8.92C55.8553 8.568 55.9233 8.212 55.9233 7.852V7.012ZM56.1153 7.012H56.9313V7.852C56.9313 8.196 56.9953 8.532 57.1233 8.86C57.2593 9.188 57.4513 9.492 57.6993 9.772C57.9473 10.052 58.2393 10.3 58.5753 10.516C58.9113 10.724 59.2793 10.888 59.6793 11.008L59.1873 11.788C58.5873 11.596 58.0553 11.308 57.5913 10.924C57.1273 10.54 56.7633 10.084 56.4993 9.556C56.2433 9.028 56.1153 8.46 56.1153 7.852V7.012ZM53.4393 6.796H59.3793V7.6H53.4393V6.796ZM60.9273 6.076H61.9233V11.956H60.9273V6.076ZM54.9393 12.484H55.9113V13.78H60.9393V12.484H61.9233V16.792H54.9393V12.484ZM55.9113 14.572V15.976H60.9393V14.572H55.9113ZM72.1253 8.704H74.2493V9.52H72.1253V8.704ZM72.1253 12.004H74.2493V12.832H72.1253V12.004ZM76.0733 6.076H77.0333V16.936H76.0733V6.076ZM73.9373 6.304H74.8853V16.384H73.9373V6.304ZM70.2413 6.988C70.7133 6.988 71.1213 7.14 71.4653 7.444C71.8173 7.748 72.0893 8.184 72.2813 8.752C72.4733 9.32 72.5693 9.988 72.5693 10.756C72.5693 11.532 72.4733 12.204 72.2813 12.772C72.0893 13.34 71.8173 13.78 71.4653 14.092C71.1213 14.396 70.7133 14.548 70.2413 14.548C69.7853 14.548 69.3813 14.396 69.0293 14.092C68.6853 13.78 68.4173 13.34 68.2253 12.772C68.0333 12.204 67.9373 11.532 67.9373 10.756C67.9373 9.988 68.0333 9.32 68.2253 8.752C68.4173 8.184 68.6853 7.748 69.0293 7.444C69.3813 7.14 69.7853 6.988 70.2413 6.988ZM70.2413 7.912C69.9613 7.912 69.7133 8.028 69.4973 8.26C69.2893 8.492 69.1293 8.82 69.0173 9.244C68.9053 9.668 68.8493 10.172 68.8493 10.756C68.8493 11.34 68.9053 11.848 69.0173 12.28C69.1293 12.704 69.2893 13.032 69.4973 13.264C69.7133 13.496 69.9613 13.612 70.2413 13.612C70.5373 13.612 70.7893 13.496 70.9973 13.264C71.2053 13.032 71.3653 12.704 71.4773 12.28C71.5973 11.848 71.6573 11.34 71.6573 10.756C71.6573 10.172 71.5973 9.668 71.4773 9.244C71.3653 8.82 71.2053 8.492 70.9973 8.26C70.7893 8.028 70.5373 7.912 70.2413 7.912ZM81.6644 6.64H82.4804V7.744C82.4804 8.44 82.3564 9.088 82.1084 9.688C81.8684 10.288 81.5244 10.812 81.0764 11.26C80.6284 11.7 80.1044 12.036 79.5044 12.268L78.9644 11.476C79.5164 11.276 79.9924 10.988 80.3924 10.612C80.8004 10.236 81.1124 9.804 81.3284 9.316C81.5524 8.82 81.6644 8.296 81.6644 7.744V6.64ZM81.8444 6.64H82.6484V7.828C82.6484 8.188 82.7124 8.544 82.8404 8.896C82.9684 9.24 83.1484 9.56 83.3804 9.856C83.6204 10.152 83.9004 10.416 84.2204 10.648C84.5404 10.872 84.8964 11.052 85.2884 11.188L84.7604 11.968C84.1844 11.752 83.6764 11.44 83.2364 11.032C82.7964 10.616 82.4524 10.136 82.2044 9.592C81.9644 9.04 81.8444 8.452 81.8444 7.828V6.64ZM86.4524 6.076H87.4484V12.664H86.4524V6.076ZM87.1724 8.884H89.0444V9.724H87.1724V8.884ZM83.9924 12.952C84.7284 12.952 85.3604 13.032 85.8884 13.192C86.4244 13.344 86.8364 13.568 87.1244 13.864C87.4124 14.16 87.5564 14.516 87.5564 14.932C87.5564 15.348 87.4124 15.704 87.1244 16C86.8364 16.296 86.4244 16.52 85.8884 16.672C85.3604 16.832 84.7284 16.912 83.9924 16.912C83.2564 16.912 82.6204 16.832 82.0844 16.672C81.5484 16.52 81.1364 16.296 80.8484 16C80.5604 15.704 80.4164 15.348 80.4164 14.932C80.4164 14.516 80.5604 14.16 80.8484 13.864C81.1364 13.568 81.5484 13.344 82.0844 13.192C82.6204 13.032 83.2564 12.952 83.9924 12.952ZM83.9924 13.744C83.4564 13.744 82.9924 13.792 82.6004 13.888C82.2164 13.984 81.9204 14.12 81.7124 14.296C81.5044 14.472 81.4004 14.684 81.4004 14.932C81.4004 15.188 81.5044 15.404 81.7124 15.58C81.9204 15.756 82.2164 15.892 82.6004 15.988C82.9924 16.076 83.4564 16.12 83.9924 16.12C84.5284 16.12 84.9884 16.076 85.3724 15.988C85.7564 15.892 86.0524 15.756 86.2604 15.58C86.4684 15.404 86.5724 15.188 86.5724 14.932C86.5724 14.684 86.4684 14.472 86.2604 14.296C86.0524 14.12 85.7564 13.984 85.3724 13.888C84.9884 13.792 84.5284 13.744 83.9924 13.744ZM94.1018 16V15.233L96.9825 12.0795C97.3206 11.7102 97.599 11.3892 97.8178 11.1165C98.0365 10.8409 98.1984 10.5824 98.3036 10.3409C98.4115 10.0966 98.4655 9.84091 98.4655 9.57386C98.4655 9.26705 98.3916 9.00142 98.2439 8.77699C98.099 8.55256 97.9001 8.37926 97.6473 8.2571C97.3945 8.13494 97.1104 8.07386 96.795 8.07386C96.4598 8.07386 96.1672 8.14347 95.9172 8.28267C95.67 8.41903 95.4783 8.6108 95.3419 8.85795C95.2084 9.10511 95.1416 9.39489 95.1416 9.72727H94.1359C94.1359 9.21591 94.2538 8.76705 94.4896 8.38068C94.7254 7.99432 95.0465 7.69318 95.4527 7.47727C95.8618 7.26136 96.3206 7.15341 96.8291 7.15341C97.3405 7.15341 97.7936 7.26136 98.1885 7.47727C98.5834 7.69318 98.893 7.98437 99.1175 8.35085C99.3419 8.71733 99.4541 9.125 99.4541 9.57386C99.4541 9.89489 99.3959 10.2088 99.2794 10.5156C99.1658 10.8196 98.9669 11.1591 98.6828 11.5341C98.4016 11.9062 98.0109 12.3608 97.5109 12.8977L95.5507 14.9943V15.0625H99.6075V16H94.1018ZM101.244 11.236H111.06V12.064H101.244V11.236ZM102.48 9.4H109.908V10.216H102.48V9.4ZM102.48 6.508H109.836V7.324H103.464V9.784H102.48V6.508ZM106.14 13C107.3 13 108.208 13.172 108.864 13.516C109.52 13.86 109.848 14.34 109.848 14.956C109.848 15.58 109.52 16.06 108.864 16.396C108.208 16.74 107.3 16.912 106.14 16.912C104.98 16.912 104.068 16.74 103.404 16.396C102.748 16.06 102.42 15.58 102.42 14.956C102.42 14.34 102.748 13.86 103.404 13.516C104.068 13.172 104.98 13 106.14 13ZM106.128 13.78C105.568 13.78 105.084 13.828 104.676 13.924C104.276 14.012 103.968 14.144 103.752 14.32C103.536 14.496 103.428 14.708 103.428 14.956C103.428 15.212 103.536 15.428 103.752 15.604C103.968 15.772 104.276 15.904 104.676 16C105.084 16.088 105.568 16.132 106.128 16.132C106.704 16.132 107.192 16.088 107.592 16C108 15.904 108.312 15.772 108.528 15.604C108.744 15.428 108.852 15.212 108.852 14.956C108.852 14.708 108.744 14.496 108.528 14.32C108.312 14.144 108 14.012 107.592 13.924C107.192 13.828 106.704 13.78 106.128 13.78ZM113.735 12.292H114.719V13.72H120.035V12.292H121.019V16.792H113.735V12.292ZM114.719 14.5V15.976H120.035V14.5H114.719ZM113.711 6.568H120.695V7.384H113.711V6.568ZM112.463 10.504H122.303V11.332H112.463V10.504ZM120.047 6.568H121.031V7.372C121.031 7.812 121.015 8.3 120.983 8.836C120.951 9.372 120.851 10.004 120.683 10.732L119.699 10.744C119.875 10.008 119.975 9.372 119.999 8.836C120.031 8.3 120.047 7.812 120.047 7.372V6.568Z" fill="#F8FAFC"/>
<path d="M63.5 34L67.5 24H59.5L63.5 34Z" fill="#F97316"/>
</svg>
