<svg width="18" height="18" viewBox="0 0 18 18" fill="none" xmlns="http://www.w3.org/2000/svg">
<path fill-rule="evenodd" clip-rule="evenodd" d="M12.7732 8.60179C12.8256 8.65404 12.8672 8.71611 12.8955 8.78445C12.9239 8.85279 12.9385 8.92605 12.9385 9.00004C12.9385 9.07403 12.9239 9.14729 12.8955 9.21563C12.8672 9.28396 12.8256 9.34604 12.7732 9.39829L6.02322 16.1483C5.9176 16.2539 5.77434 16.3132 5.62497 16.3132C5.4756 16.3132 5.33234 16.2539 5.22672 16.1483C5.1211 16.0427 5.06176 15.8994 5.06176 15.75C5.06176 15.6007 5.1211 15.4574 5.22672 15.3518L11.5796 9.00004L5.22672 2.64829C5.1211 2.54267 5.06176 2.39941 5.06176 2.25004C5.06176 2.10067 5.1211 1.95741 5.22672 1.85179C5.33234 1.74617 5.4756 1.68683 5.62497 1.68683C5.77434 1.68683 5.9176 1.74617 6.02322 1.85179L12.7732 8.60179Z" fill="black" stroke="#F8FAFC"/>
</svg>
