<svg width="24" height="24" viewBox="0 0 24 24" fill="none" xmlns="http://www.w3.org/2000/svg">
<g clip-path="url(#clip0_111_2120)">
<path d="M11.9996 13.7143C14.3665 13.7143 16.2853 11.7955 16.2853 9.42857C16.2853 7.06164 14.3665 5.14285 11.9996 5.14285C9.63265 5.14285 7.71387 7.06164 7.71387 9.42857C7.71387 11.7955 9.63265 13.7143 11.9996 13.7143Z" stroke="#020617" stroke-width="1.5" stroke-linecap="round" stroke-linejoin="round"/>
<path d="M4.67969 20.4C5.44467 19.1443 6.51982 18.1065 7.80176 17.3865C9.0837 16.6663 10.5293 16.288 11.9997 16.288C13.47 16.288 14.9157 16.6663 16.1976 17.3865C17.4796 18.1065 18.5546 19.1443 19.3197 20.4" stroke="#020617" stroke-width="1.5" stroke-linecap="round" stroke-linejoin="round"/>
<path d="M11.9998 23.1429C18.1539 23.1429 23.1426 18.1541 23.1426 12C23.1426 5.84598 18.1539 0.857147 11.9998 0.857147C5.84576 0.857147 0.856934 5.84598 0.856934 12C0.856934 18.1541 5.84576 23.1429 11.9998 23.1429Z" stroke="#020617" stroke-width="1.5" stroke-linecap="round" stroke-linejoin="round"/>
</g>
<defs>
<clipPath id="clip0_111_2120">
<rect width="24" height="24" fill="white"/>
</clipPath>
</defs>
</svg>
